<mxfile host="app.diagrams.net" agent="Mozilla/5.0 (Windows NT 10.0; Win64; x64) AppleWebKit/537.36 (KHTML, like Gecko) Chrome/135.0.0.0 Safari/537.36" version="26.2.13">
  <diagram name="第 1 页" id="XxIdvfPsT50OVHPSUJlw">
    <mxGraphModel dx="1428" dy="777" grid="1" gridSize="10" guides="1" tooltips="1" connect="1" arrows="1" fold="1" page="1" pageScale="1" pageWidth="827" pageHeight="1169" math="0" shadow="0">
      <root>
        <mxCell id="0" />
        <mxCell id="1" parent="0" />
        <mxCell id="5cEkeA_gDzNrQTjtaeKf-12" value="wovenet site1" style="rounded=1;whiteSpace=wrap;html=1;" vertex="1" parent="1">
          <mxGeometry x="230" y="330" width="120" height="60" as="geometry" />
        </mxCell>
        <mxCell id="5cEkeA_gDzNrQTjtaeKf-13" value="client1" style="shape=umlActor;verticalLabelPosition=bottom;verticalAlign=top;html=1;outlineConnect=0;" vertex="1" parent="1">
          <mxGeometry x="130" y="290" width="20" height="30" as="geometry" />
        </mxCell>
        <mxCell id="5cEkeA_gDzNrQTjtaeKf-14" value="app1" style="ellipse;whiteSpace=wrap;html=1;" vertex="1" parent="1">
          <mxGeometry x="115" y="360" width="50" height="30" as="geometry" />
        </mxCell>
        <mxCell id="5cEkeA_gDzNrQTjtaeKf-15" value="app2" style="ellipse;whiteSpace=wrap;html=1;" vertex="1" parent="1">
          <mxGeometry x="130" y="410" width="50" height="30" as="geometry" />
        </mxCell>
        <mxCell id="5cEkeA_gDzNrQTjtaeKf-16" value="wovenet site2" style="rounded=1;whiteSpace=wrap;html=1;" vertex="1" parent="1">
          <mxGeometry x="550" y="330" width="120" height="60" as="geometry" />
        </mxCell>
        <mxCell id="5cEkeA_gDzNrQTjtaeKf-17" value="" style="shape=link;endArrow=classic;startArrow=classic;html=1;rounded=0;exitX=1;exitY=0.5;exitDx=0;exitDy=0;" edge="1" parent="1" source="5cEkeA_gDzNrQTjtaeKf-12">
          <mxGeometry width="100" height="100" relative="1" as="geometry">
            <mxPoint x="410" y="420" as="sourcePoint" />
            <mxPoint x="550" y="360" as="targetPoint" />
          </mxGeometry>
        </mxCell>
        <mxCell id="5cEkeA_gDzNrQTjtaeKf-53" value="tunnel" style="edgeLabel;html=1;align=center;verticalAlign=middle;resizable=0;points=[];" vertex="1" connectable="0" parent="5cEkeA_gDzNrQTjtaeKf-17">
          <mxGeometry x="-0.21" y="2" relative="1" as="geometry">
            <mxPoint as="offset" />
          </mxGeometry>
        </mxCell>
        <mxCell id="5cEkeA_gDzNrQTjtaeKf-18" value="wovenet site3" style="rounded=1;whiteSpace=wrap;html=1;" vertex="1" parent="1">
          <mxGeometry x="380" y="160" width="120" height="60" as="geometry" />
        </mxCell>
        <mxCell id="5cEkeA_gDzNrQTjtaeKf-19" value="" style="shape=link;endArrow=classic;startArrow=classic;html=1;rounded=0;exitX=1;exitY=0.5;exitDx=0;exitDy=0;entryX=0.5;entryY=1;entryDx=0;entryDy=0;" edge="1" parent="1" source="5cEkeA_gDzNrQTjtaeKf-12" target="5cEkeA_gDzNrQTjtaeKf-18">
          <mxGeometry width="100" height="100" relative="1" as="geometry">
            <mxPoint x="370" y="360" as="sourcePoint" />
            <mxPoint x="560" y="370" as="targetPoint" />
          </mxGeometry>
        </mxCell>
        <mxCell id="5cEkeA_gDzNrQTjtaeKf-55" value="tunnel" style="edgeLabel;html=1;align=center;verticalAlign=middle;resizable=0;points=[];" vertex="1" connectable="0" parent="5cEkeA_gDzNrQTjtaeKf-19">
          <mxGeometry x="-0.0285" y="1" relative="1" as="geometry">
            <mxPoint as="offset" />
          </mxGeometry>
        </mxCell>
        <mxCell id="5cEkeA_gDzNrQTjtaeKf-20" value="" style="shape=link;endArrow=classic;startArrow=classic;html=1;rounded=0;exitX=0;exitY=0.5;exitDx=0;exitDy=0;entryX=0.5;entryY=1;entryDx=0;entryDy=0;" edge="1" parent="1" source="5cEkeA_gDzNrQTjtaeKf-16" target="5cEkeA_gDzNrQTjtaeKf-18">
          <mxGeometry width="100" height="100" relative="1" as="geometry">
            <mxPoint x="360" y="370" as="sourcePoint" />
            <mxPoint x="440" y="160" as="targetPoint" />
          </mxGeometry>
        </mxCell>
        <mxCell id="5cEkeA_gDzNrQTjtaeKf-54" value="tunnel" style="edgeLabel;html=1;align=center;verticalAlign=middle;resizable=0;points=[];" vertex="1" connectable="0" parent="5cEkeA_gDzNrQTjtaeKf-20">
          <mxGeometry x="-0.1061" y="3" relative="1" as="geometry">
            <mxPoint as="offset" />
          </mxGeometry>
        </mxCell>
        <mxCell id="5cEkeA_gDzNrQTjtaeKf-21" value="app3" style="ellipse;whiteSpace=wrap;html=1;" vertex="1" parent="1">
          <mxGeometry x="320" y="105" width="50" height="30" as="geometry" />
        </mxCell>
        <mxCell id="5cEkeA_gDzNrQTjtaeKf-24" value="" style="shape=link;endArrow=classic;startArrow=classic;html=1;rounded=0;dashed=1;" edge="1" parent="1">
          <mxGeometry width="100" height="100" relative="1" as="geometry">
            <mxPoint x="320" y="230" as="sourcePoint" />
            <mxPoint x="595" y="230" as="targetPoint" />
          </mxGeometry>
        </mxCell>
        <mxCell id="5cEkeA_gDzNrQTjtaeKf-25" value="client2" style="shape=umlActor;verticalLabelPosition=bottom;verticalAlign=top;html=1;outlineConnect=0;" vertex="1" parent="1">
          <mxGeometry x="480" y="90" width="20" height="30" as="geometry" />
        </mxCell>
        <mxCell id="5cEkeA_gDzNrQTjtaeKf-26" value="" style="endArrow=classic;html=1;rounded=0;exitX=0;exitY=1;exitDx=0;exitDy=0;exitPerimeter=0;entryX=0.5;entryY=0;entryDx=0;entryDy=0;" edge="1" parent="1" source="5cEkeA_gDzNrQTjtaeKf-25" target="5cEkeA_gDzNrQTjtaeKf-18">
          <mxGeometry width="50" height="50" relative="1" as="geometry">
            <mxPoint x="290" y="560" as="sourcePoint" />
            <mxPoint x="340" y="510" as="targetPoint" />
          </mxGeometry>
        </mxCell>
        <mxCell id="5cEkeA_gDzNrQTjtaeKf-30" value="" style="endArrow=classic;html=1;rounded=0;exitX=0;exitY=0.5;exitDx=0;exitDy=0;entryX=1;entryY=0.5;entryDx=0;entryDy=0;" edge="1" parent="1" source="5cEkeA_gDzNrQTjtaeKf-12" target="5cEkeA_gDzNrQTjtaeKf-14">
          <mxGeometry width="50" height="50" relative="1" as="geometry">
            <mxPoint x="290" y="610" as="sourcePoint" />
            <mxPoint x="340" y="560" as="targetPoint" />
          </mxGeometry>
        </mxCell>
        <mxCell id="5cEkeA_gDzNrQTjtaeKf-31" value="" style="endArrow=classic;html=1;rounded=0;exitX=0;exitY=0.5;exitDx=0;exitDy=0;entryX=1;entryY=0.5;entryDx=0;entryDy=0;" edge="1" parent="1" source="5cEkeA_gDzNrQTjtaeKf-12" target="5cEkeA_gDzNrQTjtaeKf-15">
          <mxGeometry width="50" height="50" relative="1" as="geometry">
            <mxPoint x="290" y="610" as="sourcePoint" />
            <mxPoint x="340" y="560" as="targetPoint" />
          </mxGeometry>
        </mxCell>
        <mxCell id="5cEkeA_gDzNrQTjtaeKf-33" value="" style="endArrow=classic;html=1;rounded=0;exitX=0.25;exitY=0;exitDx=0;exitDy=0;entryX=0.64;entryY=0.933;entryDx=0;entryDy=0;entryPerimeter=0;" edge="1" parent="1" source="5cEkeA_gDzNrQTjtaeKf-18" target="5cEkeA_gDzNrQTjtaeKf-21">
          <mxGeometry width="50" height="50" relative="1" as="geometry">
            <mxPoint x="290" y="560" as="sourcePoint" />
            <mxPoint x="340" y="510" as="targetPoint" />
          </mxGeometry>
        </mxCell>
        <mxCell id="5cEkeA_gDzNrQTjtaeKf-34" value="" style="endArrow=classic;html=1;rounded=0;entryX=0;entryY=0.25;entryDx=0;entryDy=0;" edge="1" parent="1" source="5cEkeA_gDzNrQTjtaeKf-13" target="5cEkeA_gDzNrQTjtaeKf-12">
          <mxGeometry width="50" height="50" relative="1" as="geometry">
            <mxPoint x="290" y="610" as="sourcePoint" />
            <mxPoint x="340" y="560" as="targetPoint" />
          </mxGeometry>
        </mxCell>
        <mxCell id="5cEkeA_gDzNrQTjtaeKf-35" value="client3" style="shape=umlActor;verticalLabelPosition=bottom;verticalAlign=top;html=1;outlineConnect=0;" vertex="1" parent="1">
          <mxGeometry x="730" y="280" width="20" height="30" as="geometry" />
        </mxCell>
        <mxCell id="5cEkeA_gDzNrQTjtaeKf-38" value="" style="shape=link;endArrow=classic;startArrow=classic;html=1;rounded=0;dashed=1;" edge="1" parent="1">
          <mxGeometry width="100" height="100" relative="1" as="geometry">
            <mxPoint x="540" y="480" as="sourcePoint" />
            <mxPoint x="540" y="290" as="targetPoint" />
          </mxGeometry>
        </mxCell>
        <mxCell id="5cEkeA_gDzNrQTjtaeKf-39" value="" style="shape=link;endArrow=classic;startArrow=classic;html=1;rounded=0;dashed=1;" edge="1" parent="1">
          <mxGeometry width="100" height="100" relative="1" as="geometry">
            <mxPoint x="358" y="484" as="sourcePoint" />
            <mxPoint x="358" y="280" as="targetPoint" />
          </mxGeometry>
        </mxCell>
        <mxCell id="5cEkeA_gDzNrQTjtaeKf-41" value="LAN1" style="text;html=1;align=center;verticalAlign=middle;whiteSpace=wrap;rounded=0;" vertex="1" parent="1">
          <mxGeometry x="310" y="280" width="60" height="30" as="geometry" />
        </mxCell>
        <mxCell id="5cEkeA_gDzNrQTjtaeKf-42" value="LAN2" style="text;html=1;align=center;verticalAlign=middle;whiteSpace=wrap;rounded=0;" vertex="1" parent="1">
          <mxGeometry x="530" y="280" width="60" height="30" as="geometry" />
        </mxCell>
        <mxCell id="5cEkeA_gDzNrQTjtaeKf-43" value="LAN3" style="text;html=1;align=center;verticalAlign=middle;whiteSpace=wrap;rounded=0;" vertex="1" parent="1">
          <mxGeometry x="310" y="190" width="60" height="30" as="geometry" />
        </mxCell>
        <mxCell id="5cEkeA_gDzNrQTjtaeKf-45" value="I need to access app3" style="whiteSpace=wrap;html=1;shape=mxgraph.basic.rectCallout;dx=30;dy=15;boundedLbl=1;" vertex="1" parent="1">
          <mxGeometry x="130" y="230" width="80" height="60" as="geometry" />
        </mxCell>
        <mxCell id="5cEkeA_gDzNrQTjtaeKf-46" value="I need to access app1" style="whiteSpace=wrap;html=1;shape=mxgraph.basic.rectCallout;dx=30;dy=15;boundedLbl=1;" vertex="1" parent="1">
          <mxGeometry x="510" y="70" width="80" height="60" as="geometry" />
        </mxCell>
        <mxCell id="5cEkeA_gDzNrQTjtaeKf-47" value="I need to access app2" style="whiteSpace=wrap;html=1;shape=mxgraph.basic.rectCallout;dx=30;dy=15;boundedLbl=1;" vertex="1" parent="1">
          <mxGeometry x="740" y="230" width="80" height="60" as="geometry" />
        </mxCell>
        <mxCell id="5cEkeA_gDzNrQTjtaeKf-48" value="" style="endArrow=classic;html=1;rounded=0;exitX=0.5;exitY=0.5;exitDx=0;exitDy=0;exitPerimeter=0;entryX=1;entryY=0.25;entryDx=0;entryDy=0;" edge="1" parent="1" source="5cEkeA_gDzNrQTjtaeKf-35" target="5cEkeA_gDzNrQTjtaeKf-16">
          <mxGeometry width="50" height="50" relative="1" as="geometry">
            <mxPoint x="290" y="610" as="sourcePoint" />
            <mxPoint x="340" y="560" as="targetPoint" />
          </mxGeometry>
        </mxCell>
        <mxCell id="5cEkeA_gDzNrQTjtaeKf-49" value="client4" style="shape=umlActor;verticalLabelPosition=bottom;verticalAlign=top;html=1;outlineConnect=0;" vertex="1" parent="1">
          <mxGeometry x="725" y="403" width="15" height="27" as="geometry" />
        </mxCell>
        <mxCell id="5cEkeA_gDzNrQTjtaeKf-50" value="I need to access app3" style="whiteSpace=wrap;html=1;shape=mxgraph.basic.rectCallout;dx=30;dy=15;boundedLbl=1;" vertex="1" parent="1">
          <mxGeometry x="735" y="353" width="80" height="60" as="geometry" />
        </mxCell>
        <mxCell id="5cEkeA_gDzNrQTjtaeKf-51" value="" style="endArrow=classic;html=1;rounded=0;exitX=0;exitY=0.3333333333333333;exitDx=0;exitDy=0;exitPerimeter=0;entryX=1;entryY=0.5;entryDx=0;entryDy=0;" edge="1" parent="1" source="5cEkeA_gDzNrQTjtaeKf-49" target="5cEkeA_gDzNrQTjtaeKf-16">
          <mxGeometry width="50" height="50" relative="1" as="geometry">
            <mxPoint x="290" y="610" as="sourcePoint" />
            <mxPoint x="340" y="560" as="targetPoint" />
          </mxGeometry>
        </mxCell>
        <mxCell id="5cEkeA_gDzNrQTjtaeKf-56" value="" style="curved=1;endArrow=classic;html=1;rounded=0;strokeColor=none;" edge="1" parent="1">
          <mxGeometry width="50" height="50" relative="1" as="geometry">
            <mxPoint x="290" y="610" as="sourcePoint" />
            <mxPoint x="340" y="560" as="targetPoint" />
            <Array as="points">
              <mxPoint x="340" y="610" />
              <mxPoint x="290" y="560" />
            </Array>
          </mxGeometry>
        </mxCell>
      </root>
    </mxGraphModel>
  </diagram>
</mxfile>
